HIERARCHY
ROOT Hips
{
  OFFSET 59.8814 91.7938 21.5984
  CHANNELS 6 Xposition Yposition Zposition Zrotation Xrotation Yrotation
  JOINT spine
  {
    OFFSET 0 6.84637 0.3937
    CHANNELS 3 Zrotation Xrotation Yrotation
    JOINT spine1
    {
      OFFSET 0 9.49621 0
      CHANNELS 3 Zrotation Xrotation Yrotation
      JOINT spine2
      {
        OFFSET 0 9.09909 0
        CHANNELS 3 Zrotation Xrotation Yrotation
        JOINT Neck
        {
          OFFSET 0 23.3612 1.11378
          CHANNELS 3 Zrotation Xrotation Yrotation
          JOINT Head
          {
            OFFSET 0 7.05802 0
            CHANNELS 3 Zrotation Xrotation Yrotation
            End Site
            {
              OFFSET 0 17.0844 -5.63419
            }
          }
        }
        JOINT RightShoulder
        {
          OFFSET -3.83136 9.82631 -0.533491
          CHANNELS 3 Zrotation Xrotation Yrotation
          JOINT RightArm
          {
            OFFSET 0 12.8881 0
            CHANNELS 3 Zrotation Xrotation Yrotation
            JOINT RightArmRoll
            {
              OFFSET 0 6.50617 0
              CHANNELS 3 Zrotation Xrotation Yrotation
              JOINT RightForeArm
              {
                OFFSET 0 18.9501 0
                CHANNELS 3 Zrotation Xrotation Yrotation
                JOINT RightForeArmRoll
                {
                  OFFSET 0 7.30092 0
                  CHANNELS 3 Zrotation Xrotation Yrotation
                  JOINT RightHand
                  {
                    OFFSET 0 14.6514 0
                    CHANNELS 3 Zrotation Xrotation Yrotation
                    End Site
                    {
                      OFFSET 0 0 0
                    }
                  }
                }
              }
            }
          }
        }
        JOINT LeftShoulder
        {
          OFFSET 3.83136 9.82631 -0.533491
          CHANNELS 3 Zrotation Xrotation Yrotation
          JOINT LeftArm
          {
            OFFSET 0 12.8881 0
            CHANNELS 3 Zrotation Xrotation Yrotation
            JOINT LeftArmRoll
            {
              OFFSET 0 6.50617 0
              CHANNELS 3 Zrotation Xrotation Yrotation
              JOINT LeftForeArm
              {
                OFFSET 0 18.9501 0
                CHANNELS 3 Zrotation Xrotation Yrotation
                JOINT LeftForeArmRoll
                {
                  OFFSET 0 7.30093 0
                  CHANNELS 3 Zrotation Xrotation Yrotation
                  JOINT LeftHand
                  {
                    OFFSET 0 14.6514 0
                    CHANNELS 3 Zrotation Xrotation Yrotation
                    End Site
                    {
                      OFFSET 0 0 0
                    }
                  }
                }
              }
            }
          }
        }
      }
    }
  }
  JOINT RightUpLeg
  {
    OFFSET -6.06837 -1.11278 -0.933477
    CHANNELS 3 Zrotation Xrotation Yrotation
    JOINT RightUpLegRoll
    {
      OFFSET 0 17.1796 0
      CHANNELS 3 Zrotation Xrotation Yrotation
      JOINT RightLeg
      {
        OFFSET 0 -21.2743 0
        CHANNELS 3 Zrotation Xrotation Yrotation
        JOINT RightLegRoll
        {
          OFFSET 0 21.3439 0
          CHANNELS 3 Zrotation Xrotation Yrotation
          JOINT RightFoot
          {
            OFFSET 0 17.7652 0
            CHANNELS 3 Zrotation Xrotation Yrotation
            JOINT RightToeBase
            {
              OFFSET 0 14.8508 0
              CHANNELS 3 Zrotation Xrotation Yrotation
              End Site
              {
                OFFSET 0.0062947 7.19213 -0.829005
              }
            }
          }
        }
      }
    }
  }
  JOINT LeftUpLeg
  {
    OFFSET 6.06837 -1.11278 -0.933477
    CHANNELS 3 Zrotation Xrotation Yrotation
    JOINT LeftUpLegRoll
    {
      OFFSET 0 17.1797 0
      CHANNELS 3 Zrotation Xrotation Yrotation
      JOINT LeftLeg
      {
        OFFSET 0 21.2742 0
        CHANNELS 3 Zrotation Xrotation Yrotation
        JOINT LeftLegRoll
        {
          OFFSET 0 21.5412 0
          CHANNELS 3 Zrotation Xrotation Yrotation
          JOINT LeftFoot
          {
            OFFSET 0 17.5679 0
            CHANNELS 3 Zrotation Xrotation Yrotation
            JOINT LeftToeBase
            {
              OFFSET 0 14.8508 0
              CHANNELS 3 Zrotation Xrotation Yrotation
              End Site
              {
                OFFSET -0.0282102 7.19214 -0.829004
              }
            }
          }
        }
      }
    }
  }
}
MOTION
Frames: 6
Frame Time: 0.00208333
53.5529 91.5029 16.6965 0.919484 0.712915 -3.44663 0.236981 -1.48655 -0.0507377 0.47275 1.02195 -0.146774 0.474549 2.66698 -0.154869 -12.0859 26.1394 3.49412 8.58764 -12.2891 0.23692 64.2446 5.86732 2.61484 105.336 4.77681 16.1137 -1.91944e-007 4.49504e-008 -6.57342e-006 8.42831 10.4421 -1.90203 2.40617e-006 -3.27888e-006 -3 8.02909 -4.95142 0.697663 -73.1796 3.13154 0.207462 -97.0818 10.6816 -34.4673 4.66715e-007 -6.47622e-006 9.93736e-008 -1.00873 0.0153065 0.167507 -1.38358e-006 -2.11818e-006 3.11814 -8.03016 -4.95139 -0.697656 175.58 5.24986 1.67218 180 7.01569e-015 179.025 176.643 5.98332 -179.99 1.35771e-006 1.24203e-006 0.0675711 -18.6694 67.9935 19.5318 8.1342 25.2328 -3.48675 -176.748 2.36433 0.540083 4.54188e-006 -4.6773e-006 -1.05805 -2.03222 -6.59268 0.116462 -4.22802e-006 -2.08559e-006 -0.0402323 17.7881 66.7836 -18.5642 -8.13353 25.2328 3.48648 
53.559 91.4956 16.6946 0.911264 0.748756 -3.44159 0.236986 -1.48733 -0.0498078 0.474013 1.02093 -0.142805 0.475784 2.66596 -0.150912 -12.0713 26.1206 3.48442 8.58618 -12.2847 0.234442 64.2192 5.83686 2.60262 105.349 4.65739 16.1946 -1.91944e-007 4.49504e-008 -6.57342e-006 8.39596 10.4355 -1.90012 2.40617e-006 -3.27888e-006 -3 8.02909 -4.95142 0.697663 -73.147 3.11905 0.208572 -97.1622 10.5276 -34.1997 4.66715e-007 -6.47622e-006 9.93736e-008 -1.30829 0.0172271 0.17687 -1.38358e-006 -2.11818e-006 3.11263 -8.03016 -4.95139 -0.697656 175.594 5.28736 1.65644 180 7.01569e-015 179.025 176.652 5.98492 -179.991 1.35771e-006 1.24203e-006 0.0675711 -18.6663 67.9898 19.5285 8.1342 25.2328 -3.48675 -176.736 2.40166 0.533985 4.54188e-006 -4.6773e-006 -1.05752 -2.03582 -6.59 0.116145 -4.22802e-006 -2.08559e-006 -0.0402323 17.7896 66.7857 -18.5659 -8.13353 25.2328 3.48648 
53.5602 91.4975 16.6949 0.902925 0.784898 -3.4368 0.236988 -1.48819 -0.0488566 0.475335 1.01977 -0.138712 0.477077 2.6648 -0.146832 -12.0571 26.1007 3.47523 8.58423 -12.2784 0.232201 64.1933 5.80617 2.59037 105.363 4.53714 16.276 -1.91944e-007 4.49504e-008 -6.57342e-006 8.36359 10.4281 -1.89813 2.40617e-006 -3.27888e-006 -3 8.02909 -4.95142 0.697663 -73.1145 3.10645 0.209725 -97.2426 10.3698 -33.9247 4.66715e-007 -6.47622e-006 9.93736e-008 -1.61656 0.0191986 0.186718 -1.38358e-006 -2.11818e-006 3.10698 -8.03016 -4.95139 -0.697656 175.608 5.32514 1.64063 180 7.01569e-015 179.025 176.661 5.98639 -179.992 1.35771e-006 1.24203e-006 0.0675711 -18.6633 67.9862 19.5252 8.1342 25.2328 -3.48675 -176.724 2.43915 0.52774 4.54188e-006 -4.6773e-006 -1.05699 -2.03948 -6.58713 0.115828 -4.22802e-006 -2.08559e-006 -0.0402323 17.7912 66.7879 -18.5677 -8.13353 25.2328 3.48648 
53.5609 91.5014 16.6916 0.894501 0.821251 -3.43217 0.236987 -1.4891 -0.0478905 0.476698 1.01852 -0.134534 0.47841 2.66355 -0.142667 -12.0431 26.08 3.4664 8.58193 -12.2709 0.230125 64.1671 5.77533 2.5781 105.377 4.41632 16.3576 -1.91944e-007 4.49504e-008 -6.57342e-006 8.33121 10.4201 -1.89609 2.40617e-006 -3.27888e-006 -3 8.02909 -4.95142 0.697663 -73.082 3.09378 0.210907 -97.3224 10.209 -33.6445 4.66715e-007 -6.47622e-006 9.93736e-008 -1.9309 0.0212055 0.196906 -1.38358e-006 -2.11818e-006 3.10123 -8.03016 -4.95139 -0.697656 175.623 5.36311 1.62475 180 7.01569e-015 179.025 176.67 5.98778 -179.992 1.35771e-006 1.24203e-006 0.0675711 -18.6601 67.9824 19.5219 8.1342 25.2328 -3.48675 -176.712 2.47675 0.521392 4.54188e-006 -4.6773e-006 -1.05646 -2.04318 -6.58414 0.115511 -4.22802e-006 -2.08559e-006 -0.0402323 17.793 66.7902 -18.5695 -8.13353 25.2328 3.48648 
53.5647 91.4997 16.6862 0.886027 0.857726 -3.42765 0.236985 -1.49005 -0.0469159 0.478084 1.01721 -0.130306 0.479766 2.66224 -0.138454 -12.0292 26.059 3.45778 8.57945 -12.2626 0.228145 64.1406 5.7444 2.56583 105.392 4.29522 16.4394 -1.91944e-007 4.49504e-008 -6.57342e-006 8.29883 10.4118 -1.89401 2.40617e-006 -3.27888e-006 -3 8.02909 -4.95142 0.697663 -73.0494 3.08106 0.212107 -97.401 10.0457 -33.3618 4.66715e-007 -6.47622e-006 9.93736e-008 -2.24873 0.0232328 0.207288 -1.38358e-006 -2.11818e-006 3.09543 -8.03016 -4.95139 -0.697656 175.637 5.4012 1.60884 180 7.01569e-015 179.025 176.679 5.98912 -179.993 1.35771e-006 1.24203e-006 0.0675711 -18.657 67.9787 19.5185 8.1342 25.2328 -3.48675 -176.7 2.51442 0.514985 4.54188e-006 -4.6773e-006 -1.05594 -2.0469 -6.58106 0.115193 -4.22802e-006 -2.08559e-006 -0.0402323 17.7947 66.7925 -18.5715 -8.13353 25.2328 3.48648 
53.56 91.5015 16.6825 0.877536 0.894231 -3.42315 0.236983 -1.491 -0.0459392 0.479477 1.01589 -0.126066 0.481128 2.66092 -0.134228 -12.0154 26.0379 3.44921 8.57691 -12.2541 0.226187 64.1141 5.71345 2.55355 105.408 4.17413 16.5213 -1.91944e-007 4.49504e-008 -6.57342e-006 8.26645 10.4034 -1.89194 2.40617e-006 -3.27888e-006 -3 8.02909 -4.95142 0.697663 -73.0169 3.06834 0.213311 -97.478 9.88078 -33.0788 4.66715e-007 -6.47622e-006 9.93736e-008 -2.56743 0.0252652 0.217719 -1.38358e-006 -2.11818e-006 3.08961 -8.03016 -4.95139 -0.697656 175.652 5.43931 1.59293 180 7.01569e-015 179.025 176.688 5.99046 -179.994 1.35771e-006 1.24203e-006 0.0675711 -18.6539 67.9749 19.5151 8.1342 25.2328 -3.48675 -176.688 2.5521 0.508564 4.54188e-006 -4.6773e-006 -1.05542 -2.05063 -6.57797 0.114876 -4.22802e-006 -2.08559e-006 -0.0402323 17.7965 66.7949 -18.5734 -8.13353 25.2328 3.48648 
